<?xml version="1.0" encoding="iso-8859-1"?>
<!-- Generator: Adobe Illustrator 19.0.0, SVG Export Plug-In . SVG Version: 6.00 Build 0)  -->
<svg version="1.1" id="Capa_1" xmlns="http://www.w3.org/2000/svg" xmlns:xlink="http://www.w3.org/1999/xlink" x="0px" y="0px"
	 viewBox="0 0 512 512" style="enable-background:new 0 0 512 512;" xml:space="preserve">
<path style="fill:#3E3D42;" d="M288.995,282.097v196.912c0,18.145-14.846,32.991-32.991,32.991
	c-18.145,0-32.991-14.846-32.991-32.991V282.097c0-6.804,5.567-12.371,12.371-12.371h41.238
	C283.428,269.726,288.995,275.293,288.995,282.097z"/>
<path style="fill:#2D2D30;" d="M288.995,282.097v99.9c-10.557,2.691-21.609,4.113-32.991,4.113c-11.382,0-22.434-1.423-32.991-4.113
	v-99.9c0-6.804,5.567-12.371,12.371-12.371h41.238C283.428,269.726,288.995,275.293,288.995,282.097z"/>
<circle style="fill:#1D1D1F;" cx="256" cy="180.417" r="180.417"/>
<g>
	<path style="fill:#2D2D30;" d="M418.204,180.435c0,85.404-65.919,155.396-149.653,161.881c-4.196,0.33-8.444,0.495-12.722,0.495
		c-89.672,0-162.375-72.693-162.375-162.375c0-89.672,72.703-162.375,162.375-162.375c4.278,0,8.526,0.165,12.722,0.495
		C352.285,25.039,418.204,95.042,418.204,180.435z"/>
	<path style="fill:#2D2D30;" d="M418.204,180.435c0,85.404-65.919,155.396-149.653,161.881
		c-83.734-6.474-149.664-76.476-149.664-161.881c0-85.394,65.93-155.406,149.664-161.881
		C352.285,25.039,418.204,95.042,418.204,180.435z"/>
</g>
<path style="fill:#FFEB99;" d="M403.307,187.909c0,50.537-40.96,91.497-91.497,91.497h-0.278
	c-16.516-0.052-32.599,4.773-46.403,13.856c-10.444,6.876-22.392,11.67-35.238,13.784c-5.041,0.835-10.227,1.258-15.516,1.227
	c-49.682-0.278-90.446-40.846-90.961-90.518c-0.351-32.97,16.743-61.971,42.62-78.342c8.959-5.67,13.877-15.815,13.578-26.413
	c-0.031-1.258-0.031-2.526,0.021-3.804c1.124-30.454,26.444-54.919,56.919-55.053c5.289-0.021,10.402,0.67,15.268,1.99
	c14.299,3.876,26.372,13.176,33.898,25.537c5.505,9.062,15.196,14.774,25.805,14.743h0.845
	C362.801,96.711,403.307,137.475,403.307,187.909z"/>
<path style="fill:#FFF5CC;" d="M403.307,187.909c0,50.537-40.96,91.497-91.497,91.497h-0.278
	c-16.516-0.052-32.599,4.773-46.403,13.856c-10.444,6.876-22.392,11.67-35.238,13.784c-42.939-7.124-76.115-44.506-76.579-89.291
	c-0.351-32.97,16.743-61.971,42.62-78.342c8.959-5.67,13.877-15.815,13.578-26.413c-0.031-1.258-0.031-2.526,0.021-3.804
	c0.938-25.413,18.722-46.651,42.29-53.063c14.299,3.876,26.372,13.176,33.898,25.537c5.505,9.062,15.196,14.774,25.805,14.743h0.845
	C362.801,96.711,403.307,137.475,403.307,187.909z"/>
<path style="fill:#EE8700;" d="M313.913,185.25c0,26.815-18.227,49.372-42.96,55.96c-4.773,1.268-9.784,1.949-14.949,1.949
	c-31.98,0-57.909-25.929-57.909-57.909s25.929-57.909,57.909-57.909c5.165,0,10.176,0.68,14.949,1.949
	C295.686,135.877,313.913,158.434,313.913,185.25z"/>
<path style="fill:#FF9811;" d="M313.913,185.25c0,26.815-18.227,49.372-42.96,55.96c-24.733-6.588-42.96-29.145-42.96-55.96
	s18.227-49.372,42.96-55.96C295.686,135.877,313.913,158.434,313.913,185.25z"/>
<g>
</g>
<g>
</g>
<g>
</g>
<g>
</g>
<g>
</g>
<g>
</g>
<g>
</g>
<g>
</g>
<g>
</g>
<g>
</g>
<g>
</g>
<g>
</g>
<g>
</g>
<g>
</g>
<g>
</g>
</svg>
