<?xml version="1.0" encoding="utf-8"?>
<!-- Generator: Adobe Illustrator 22.0.1, SVG Export Plug-In . SVG Version: 6.00 Build 0)  -->
<svg version="1.1" id="Layer_1" xmlns="http://www.w3.org/2000/svg" xmlns:xlink="http://www.w3.org/1999/xlink" x="0px" y="0px"
	 viewBox="0 0 512 512" style="enable-background:new 0 0 512 512;" xml:space="preserve">
<style type="text/css">
	.st0{fill:#DCDCDC;}
	.st1{fill:#707070;}
	.st2{fill:#7E7E7E;}
	.st3{fill:#545454;}
	.st4{fill:#8C8C8C;}
	.st5{fill:#AEAEAE;}
	.st6{fill:#A3A3A3;}
	.st7{fill:#C5C5C5;}
	.st8{fill:#979797;}
</style>
<path class="st0" d="M257.2,512h-2.3C114.1,512,0,397.9,0,257.2l0,0C0,116.4,114.1,2.3,254.8,2.3h2.3C397.9,2.3,512,116.4,512,257.2
	l0,0C512,397.9,397.9,512,257.2,512z"/>
<path class="st1" d="M40.7,225.1h226.6V512H40.7V225.1L40.7,225.1z"/>
<path class="st2" d="M256.1,225.1h215.5V512H256.1V225.1L256.1,225.1z"/>
<path class="st3" d="M188.2,286.6c0,4.9-4,8.9-8.9,8.9h-61.8c-4.9,0-8.9-4-8.9-8.9s4-8.9,8.9-8.9h61.8
	C184.2,277.7,188.2,281.7,188.2,286.6z"/>
<path class="st3" d="M312.6,335.8h102.6v120.7H312.6V335.8L312.6,335.8z"/>
<path class="st3" d="M323.5,286.6c0,4.9-4,8.9-8.9,8.9h-2.1c-4.9,0-8.9-4-8.9-8.9s4-8.9,8.9-8.9h2.1
	C319.5,277.7,323.5,281.7,323.5,286.6z M363.8,277.7h-2.1c-4.9,0-8.9,4-8.9,8.9c0,4.9,4,8.9,8.9,8.9h2.1c4.9,0,8.9-4,8.9-8.9
	S368.8,277.7,363.8,277.7z M415.1,277.7h-2.1c-4.9,0-8.9,4-8.9,8.9c0,4.9,4,8.9,8.9,8.9h2.1c4.9,0,8.9-4,8.9-8.9
	S420.1,277.7,415.1,277.7z"/>
<path class="st4" d="M265.2,11.2c0,4.9-4,8.9-8.9,8.9H40.5c-4.9,0-8.9-4-8.9-8.9s4-8.9,8.9-8.9h215.9
	C261.2,2.3,265.2,6.3,265.2,11.2z"/>
<path class="st5" d="M105.7,11.2v84.3c0,4.9-4,8.9-8.9,8.9s-8.9-4-8.9-8.9V11.2c0-4.9,4-8.9,8.9-8.9C101.7,2.3,105.7,6.3,105.7,11.2
	z"/>
<path class="st5" d="M208.9,11.2v84.3c0,4.9-4,8.9-8.9,8.9s-8.9-4-8.9-8.9V11.2c0-4.9,4-8.9,8.9-8.9C204.9,2.3,208.9,6.3,208.9,11.2
	z"/>
<path class="st6" d="M363.8,225.1c-31.4,0-57.1-25.7-57.1-57v-16.7c0-1.1,0-2.2,0.1-3.3h114c0.1,1.1,0.1,2.2,0.1,3.3v16.7
	C421,199.4,395.3,225.1,363.8,225.1L363.8,225.1L363.8,225.1z"/>
<path class="st5" d="M306.7,151.4c0-1.1,0-2.2,0.1-3.3h60.4c0.1,1.1,0.1,2.2,0.1,3.3v16.7c0,21.7-12.3,40.7-30.3,50.3
	c-18-9.6-30.3-28.6-30.3-50.3V151.4L306.7,151.4z"/>
<path class="st7" d="M345.1,44.5c8.2,14.6,19.3,34.7,1.5,54.6c-1.8,2-4.2,3-6.6,3c-2.1,0-4.2-0.7-5.9-2.3c-3.7-3.3-4-8.9-0.7-12.5
	c8.5-9.5,5.6-17.3-3.8-34.1c-7.8-14.1-17.6-31.6-4.4-49.5c2.9-4,8.5-4.8,12.4-1.9c4,2.9,4.8,8.4,1.9,12.4
	C333.7,22,336.7,29.5,345.1,44.5z M393.8,44.5c-8.4-15.1-11.5-22.5-5.6-30.4c2.9-4,2-9.5-1.9-12.4c-4-2.9-9.5-2-12.4,1.9
	c-13.2,17.9-3.4,35.4,4.4,49.5c9.4,16.8,12.4,24.6,3.8,34.1c-3.3,3.7-3,9.3,0.7,12.5c1.7,1.5,3.8,2.3,5.9,2.3c2.4,0,4.9-1,6.6-3
	C413.1,79.2,401.9,59.2,393.8,44.5z"/>
<path class="st4" d="M7.8,232.8c0-4.9,4-8.9,8.9-8.9h478.6c4.9,0,8.9,4,8.9,8.9s-4,8.9-8.9,8.9H16.7C11.8,241.6,7.8,237.7,7.8,232.8
	z M495.3,494.3H16.7c-4.9,0-8.9,4-8.9,8.9c0,4.9,4,8.9,8.9,8.9h478.6c4.9,0,8.9-4,8.9-8.9C504.2,498.2,500.2,494.3,495.3,494.3z"/>
<path class="st8" d="M121.7,111.5v9.4c0,13.7-11.2,24.9-24.9,24.9h0c-13.7,0-24.9-11.2-24.9-24.9v-9.4c0-13.7,11.2-24.9,24.9-24.9h0
	C110.5,86.6,121.7,97.8,121.7,111.5z"/>
<path class="st8" d="M225,111.5v34.3h-49.9v-34.3c0-13.7,11.2-24.9,24.9-24.9h0C213.7,86.6,225,97.8,225,111.5z"/>
</svg>
