<?xml version="1.0" encoding="utf-8"?>
<!-- Generator: Adobe Illustrator 21.1.0, SVG Export Plug-In . SVG Version: 6.00 Build 0)  -->
<svg version="1.1" id="Calque_1" xmlns="http://www.w3.org/2000/svg" xmlns:xlink="http://www.w3.org/1999/xlink" x="0px" y="0px"
	 viewBox="0 0 449 380.5" style="enable-background:new 0 0 449 380.5;" xml:space="preserve">
<style type="text/css">
	.st0{fill:#D0021B;stroke:#D0021B;stroke-miterlimit:10;}
	.st1{fill:#AF2D2D;stroke:#AF2D2D;stroke-miterlimit:10;}
	.st2{fill:#AF2D2D;stroke:#B02C2D;stroke-miterlimit:10;}
	.st3{fill:none;}
	.st4{fill:#DB2023;stroke:#DB2023;stroke-miterlimit:10;}
	.st5{fill:#DB2023;}
	.st6{fill:#D9242B;}
	.st7{fill:#DDA773;stroke:#DDA773;stroke-miterlimit:10;}
	.st8{fill:#AF2D2D;}
	.st9{fill:none;stroke:#B02C2D;stroke-width:4;stroke-miterlimit:10;}
	.st10{fill:#DDA773;}
	.st11{fill:#FDFEFE;}
</style>
<polygon class="st0" points="56.7,113.8 65.5,342.9 411.8,342.9 418.9,113.8 "/>
<path class="st0" d="M237.8,373.1c96.2,0,174-13.5,174-30.2H65.5C65.5,359.6,142.6,373.1,237.8,373.1"/>
<path class="st0" d="M42.2,177.7c0,9,7.8,16.3,17.5,16.3l0.5,12.7c-18.4,0-33.3-13-33.3-29"/>
<path class="st0" d="M58.2,153.1c-17.3,0-31.2,11-31.2,24.6h15.3c0-6,7.4-10.8,16.5-10.8L58.2,153.1z"/>
<path class="st0" d="M433.7,177.7c0-6-7.3-10.8-16.4-10.8l0.4-13.8c16.7,0,30.2,11,30.2,24.6"/>
<path class="st0" d="M433.7,177.7c0,9-7.7,16.3-17.2,16.3l-0.4,12.7c17.6,0,31.8-13,31.8-29"/>
<path class="st1" d="M237.8,142.9c-100.1,0-181.1-13-181.1-29.1h181.1h181.1C418.9,129.8,337.9,142.9,237.8,142.9
	C237.8,142.9,137.7,142.9,237.8,142.9"/>
<path class="st2" d="M237.8,82.1c-100.1,0-181.1,14.2-181.1,31.7h362.3C418.9,96.3,337.9,82.1,237.8,82.1"/>
<path class="st3" d="M0.9,109.6c0,21.8,75.3,39.4,168.3,39.4"/>
<path class="st4" d="M389.9,95.1c0,29.8-98.7,53.9-220.7,53.9V63.2L389.9,95.1c0-17.6-98.7-31.9-220.7-31.9"/>
<path class="st4" d="M169.2,63.2C76.2,63.2,0.9,84,0.9,109.6h168.3V63.2z"/>
<polyline class="st5" points="0.9,109.6 169.2,109.6 169.2,149 "/>
<path class="st4" d="M169.2,149c-93,0-168.3-17.6-168.3-39.4h168.3V149z"/>
<path class="st4" d="M191.8,51.1c-65.2,0-117.9,13.9-117.9,31h117.9V51.1z"/>
<path class="st4" d="M321.4,82.1c0-17.1-58-31-129.6-31v31H321.4z"/>
<polygon class="st6" points="154.6,46.3 154.6,52.7 233.9,52.8 233.9,46.3 "/>
<ellipse class="st6" cx="172.9" cy="39.7" rx="25.3" ry="13.8"/>
<ellipse class="st6" cx="212.5" cy="39" rx="25.3" ry="13.8"/>
<polygon class="st6" points="188.9,29 195.7,28.7 192.3,30.8 "/>
<polygon class="st7" points="405.2,124.2 444.4,13.8 429.7,10.1 389.9,124.2 "/>
<path class="st7" d="M438,5c-4.5,0-8.1,1.9-8.1,4.2l14.7,3.8C444.6,8.5,441.6,5,438,5"/>
<polygon class="st8" points="405.9,124.4 406.4,124.2 406.4,124.4 "/>
<path class="st3" d="M65.3,91.1c0,10.2,55.3,18.5,123.6,18.5"/>
<path class="st9" d="M315.6,84.2c0,15.2-59.3,27.5-132.5,27.5"/>
<path class="st9" d="M80.4,91.1c0,11.4,52.7,20.6,117.8,20.6"/>
<path class="st1" d="M121.8,222.1c1.9-2,4.6-2.9,8.1-2.5c1.8,0.2,3.4,0.7,4.6,1.5l-7,60.1c4.1,0.5,7.8-0.1,11.1-1.6
	c3.2-1.5,6-3.8,8.3-6.7c2.4-2.9,4.2-6.3,5.6-10.2c1.4-3.8,2.4-7.8,2.9-11.9c0.5-4,0.5-7.9,0-11.7c-0.5-3.9-1.5-7.4-3.1-10.6
	c-1.6-3.2-3.9-5.9-6.8-8c-2.9-2.1-6.6-3.5-11.1-4c-4.7-0.6-8.9-0.1-12.5,1.2c-3.6,1.4-6.6,3.4-9.1,6.1c-2.5,2.7-4.5,5.8-5.9,9.4
	c-1.4,3.6-2.4,7.2-2.8,11.1c-0.6,4.8-0.4,9.5,0.6,14.1c0.9,4.5,2.6,8.3,5,11.4c-1.6,0.2-3.1,0.2-4.5,0.1c-3.6-0.4-6.6-1.9-9-4.3
	c-2.3-2.5-3.9-5.6-4.9-9.3c-1-3.7-1.2-7.7-0.7-11.9c0.4-3.4,1.3-6.9,2.7-10.3c1.4-3.4,3.3-6.6,5.7-9.6c2.4-3,5.3-5.5,8.8-7.6
	c3.4-2.2,7.4-3.7,12-4.7c4.5-0.9,9.6-1.1,15.3-0.4c7.2,0.8,13.3,2.6,18.1,5.2c4.8,2.6,8.6,5.8,11.4,9.6c2.8,3.8,4.6,7.9,5.6,12.3
	c1,4.5,1.2,9,0.6,13.6c-0.6,4.9-1.9,9.5-4,14c-2,4.5-4.7,8.4-8.1,11.9c-3.3,3.4-7.2,6-11.7,7.8c-4.5,1.8-9.4,2.3-14.8,1.7
	c-4-0.5-7.8-1.3-11.3-2.4c-3.5-1.1-6.4-2.3-8.5-3.7l5.7-48.8C118.7,227.7,119.9,224.2,121.8,222.1z"/>
<path class="st1" d="M211.3,288.9c-5,3.4-10.2,5-15.6,4.8c-4-0.1-7.6-1.3-10.8-3.6c-3.3-2.3-5.8-5.4-7.6-9.4
	c-1.9-4-2.7-8.7-2.5-14.1c0.2-5.7,1.3-10.6,3.3-14.9c2-4.2,4.8-7.5,8.5-9.7c3.7-2.2,8.1-3.3,13.4-3.1c2.6,0.1,5.2,0.6,7.7,1.5
	c5.8,2.4,8.5,7.3,8.3,14.6c-0.6,11-9.2,18.5-25.5,22.5c0.9,3.4,2.2,5.9,4,7.4c1.8,1.5,3.8,2.3,6.1,2.4c3.3,0.1,6.8-1.2,10.6-3.9
	c5.2-3.9,9.6-9,13.3-15.1c0.6-1.1,1.4-1.6,2.4-1.6c0.9,0.1,1.4,0.5,1.4,1.3c0,0.2-0.1,0.5-0.2,0.8
	C222.9,278.2,217.3,284.9,211.3,288.9z M189.8,274c9.5-3.2,14.5-10.5,14.9-21.8c0-1.4,0-2.8-0.1-4.2c-0.2-1.4-0.6-2.6-1.3-3.5
	c-0.8-1-1.9-1.5-3.5-1.5c-1.7-0.1-3.2,0.6-4.4,1.9c-1.2,1.3-2.3,3-3.1,5.3c-0.8,2.2-1.5,4.7-1.9,7.4c-0.5,2.7-0.7,5.4-0.8,8.2
	C189.4,268.8,189.5,271.6,189.8,274z"/>
<path class="st1" d="M226.4,226.3c0.8-4.8,2.1-9,4-12.8c1.9-3.8,4.4-6.8,7.7-9.1c3.2-2.3,7.2-3.4,12-3.5c2.6,0,4.5,0.5,5.4,1.7
	c-3.8,0.6-6.8,2.4-8.9,5.3c-2.1,2.9-3.7,6.3-4.6,10.3c-1,4-1.5,8.1-1.7,12.2c-0.2,4.1-0.3,7.6-0.2,10.4l0.5,39.3
	c0.1,3.9,1,5.8,2.7,5.8c1.1,0,2.3-0.9,3.7-2.8c1.3-1.8,2.6-3.9,3.9-6.2c1.2-2.2,2.2-4.1,3-5.7c0.8-1.5,1.3-2.6,1.7-3.3
	c0.6-1.1,1.3-1.7,2.3-1.7c0.9,0,1.4,0.4,1.4,1.3c0,0.3-0.1,0.5-0.2,0.8c-0.5,1.1-1.1,2.3-1.6,3.5c-0.5,1-1,2-1.5,3
	c-1.1,2.4-2.3,4.8-3.6,7.1s-2.7,4.5-4.2,6.5c-1.6,2-3.3,3.6-5.3,4.8c-2,1.2-4.3,1.8-6.9,1.9c-2,0-3.6-0.4-4.9-1.3
	c-1.3-0.9-2.3-2.1-3.1-3.6c-0.8-1.7-1.4-3.7-1.7-5.9c-0.3-2.2-0.5-4.4-0.5-6.7l-0.5-36.5C225.3,235.9,225.6,231,226.4,226.3z"/>
<path class="st1" d="M254.1,222.3c-0.1-2.5,0.6-4.8,2.2-6.7c1.6-1.9,3.5-2.9,5.9-3c2.4-0.1,4.5,0.7,6.2,2.4c1.8,1.7,2.7,3.9,2.8,6.4
	c0.1,2.5-0.6,4.8-2.2,6.7c-1.6,1.9-3.5,2.9-5.9,3c-2.4,0.1-4.4-0.7-6.1-2.4C255.1,227,254.2,224.8,254.1,222.3z M271.9,279.1
	l-2-39.6c-1.4-0.5-2.9-0.8-4.8-0.7c-3.4,0.2-5.9,1.4-7.4,3.7c-1.5,2.3-2.2,6-1.9,11L257,277c0.1,2.3,0.4,4.5,0.8,6.6
	c0.4,2.2,1,4.1,2,5.8c0.8,1.5,1.9,2.7,3.2,3.5c1.3,0.9,2.9,1.3,5,1.2c2.6-0.1,4.8-0.8,6.7-2.1c1.9-1.3,3.7-3,5.1-5
	c1.5-2,2.8-4.2,4-6.7s2.3-4.8,3.3-7.3c0.5-1,0.9-2,1.3-3c0.5-1.2,1.1-2.4,1.5-3.5c0.1-0.2,0.2-0.5,0.2-0.8c-0.1-0.9-0.6-1.3-1.5-1.2
	c-1,0-1.7,0.6-2.2,1.8c-0.3,0.7-0.8,1.9-1.6,3.4c-0.7,1.6-1.6,3.6-2.8,5.8c-1.2,2.3-2.4,4.4-3.7,6.3c-1.3,1.9-2.4,2.9-3.5,2.9
	C273,284.9,272.1,283,271.9,279.1z"/>
<path class="st1" d="M338.7,267.8c0.5-0.3,1.1-0.5,1.7-0.5c1.1-0.1,1.7,0.5,1.8,1.6c0.1,0.9-0.5,1.6-1.7,2.2
	c-4.4,2.5-9.2,5.5-14.3,9.2c1.9,2.2,3.6,4.6,4.8,7.3c1.3,2.7,2.1,5.6,2.4,8.7c0.6,6,0.3,11.2-0.9,15.7c-1.2,4.5-3,8.3-5.4,11.4
	c-2.4,3.1-5.2,5.5-8.4,7.2c-3.2,1.7-6.4,2.7-9.8,3c-2.6,0.3-4.9-0.1-7.1-1c-2.2-0.9-4-2.2-5.4-4.1c-1.4-1.9-2.2-4.3-2.5-7.1
	c-0.4-4.2,0.3-8.5,2.1-12.7c1.8-4.3,4.4-8.5,7.7-12.6c3.3-4.1,7.1-7.9,11.3-11.6c-1.6-3.3-3.5-5.9-5.8-8.1c-2.2-2.1-4.5-3.9-6.9-5.3
	l9.3-28.7c-2.3,0.2-4.7,0.3-7.2,0.2c-2.5-0.1-4.9-0.4-7.2-1.1c-0.2,0.8-0.3,1.7-0.5,2.6c-0.8,3.3-1.5,6.9-2.1,10.8
	c-0.6,3.9-0.7,7.9-0.3,12.1c0.2,2.2,0.7,4.4,1.3,6.3c0.7,2,1.7,3.8,3.1,5.2c-1.1,0.4-2.2,0.7-3.3,0.8c-2.6,0.3-4.7-0.5-6.4-2.2
	c-1.7-1.7-2.7-4.6-3.1-8.5c-0.3-2.8-0.2-5.5,0.1-8.3c0.4-2.8,0.9-5.4,1.6-8c0.7-2.6,1.4-5,2.1-7.3c0.6-2.1,1.2-4.1,1.7-5.9
	c-2.1-0.8-3.9-1.9-5.3-3.4c-1.4-1.5-2.2-3.5-2.4-6c-0.2-1.8,0-3.3,0.6-4.5c0.6-1.2,1.4-2.2,2.4-2.8c1-0.7,2.1-1.1,3.3-1.2
	c1.3-0.1,2.5,0.1,3.8,0.6c1.3,0.5,2.4,1.4,3.3,2.5c0.9,1.2,1.5,2.7,1.6,4.5c0.1,1.1,0.1,2.2,0,3.4c-0.1,1.2-0.3,2.3-0.5,3.4
	c-0.1,0.4-0.1,0.8-0.2,1.2c1.8,0.5,3.6,0.7,5.5,0.8c1.9,0.1,3.7,0.1,5.5-0.1c2.8-0.3,5.6-0.7,8.3-1.3c2.4-0.5,4.5-0.8,6.3-1
	c1.2-0.1,2.2,0.3,3.1,1.4c0.4,0.6,0.7,1.2,0.7,1.9c0.1,0.5,0,1-0.2,1.6L316.8,273c2.4,1.3,4.7,2.8,6.7,4.6
	C328.9,273.7,334,270.4,338.7,267.8z M289.8,229.4c0.1,1.2,0.4,2.3,0.8,3.2c0.4,1.1,1.1,1.9,1.9,2.4c0.3-1.6,0.5-3.3,0.3-5.1
	c-0.1-0.8-0.3-1.5-0.6-2c-0.4-0.5-0.9-0.8-1.5-0.7c-0.4,0-0.6,0.3-0.7,0.8C289.8,228.3,289.8,228.8,289.8,229.4z M316.6,288.2
	c-3.3,3-6.1,6.2-8.6,9.6c-2.5,3.3-4.4,6.8-5.7,10.4c-1.3,3.6-1.8,7.1-1.5,10.7c0.3,2.5,0.9,4.5,2.1,6c1.1,1.5,2.8,2.1,5.3,1.8
	c2.4-0.2,4.4-1.2,6-3c1.5-1.7,2.7-4,3.5-6.7c0.8-2.7,1.2-5.8,1.3-9.2c0.2-3.3,0.1-6.7-0.3-10.1C318.3,294.1,317.6,290.9,316.6,288.2
	z"/>
<path class="st1" d="M378.3,275.9c-4.2,4.3-9,7-14.3,7.8c-3.9,0.7-7.7,0.2-11.3-1.3c-3.6-1.6-6.8-4.1-9.3-7.7
	c-2.6-3.6-4.4-8-5.3-13.3c-0.9-5.6-0.9-10.7,0.2-15.2c1.1-4.5,3.2-8.3,6.4-11.3c3.1-2.9,7.3-4.8,12.6-5.7c2.6-0.4,5.2-0.5,7.9-0.1
	c6.1,1.2,9.8,5.5,11.1,12.7c1.6,11-5.3,20-20.5,27.1c1.5,3.2,3.4,5.3,5.4,6.4c2,1.1,4.2,1.5,6.5,1.1c3.2-0.5,6.4-2.5,9.6-5.9
	c4.3-4.9,7.6-10.7,10-17.5c0.4-1.2,1-1.9,2-2c0.9-0.1,1.5,0.2,1.6,1c0,0.2,0,0.5-0.1,0.8C387.6,263,383.4,270.7,378.3,275.9z
	 M354.3,265.5c8.7-5.1,12.1-13.2,10.2-24.4c-0.2-1.4-0.5-2.7-1-4.1c-0.4-1.3-1.1-2.4-2-3.2c-0.9-0.8-2.2-1.1-3.7-0.8
	c-1.7,0.3-3,1.2-4,2.7c-0.9,1.5-1.6,3.4-2,5.8c-0.4,2.3-0.5,4.9-0.4,7.6c0.1,2.7,0.4,5.5,0.8,8.2
	C352.9,260.6,353.5,263.3,354.3,265.5z"/>
<polygon class="st10" points="389.4,124.1 387.2,130.8 393.2,129.3 396.6,128.3 399.5,127.4 402.3,126.5 404.7,125.7 405.3,125.4 
	405.7,124.4 "/>
<polygon class="st4" points="306.6,88.8 319,96.8 322.7,81 310.7,81.8 "/>
<path class="st11" d="M122.7,223.7c1.9-2,4.6-2.9,8.1-2.5c1.8,0.2,3.4,0.7,4.6,1.5l-7,60.1c4.1,0.5,7.8-0.1,11.1-1.6
	c3.2-1.5,6-3.8,8.3-6.7c2.4-2.9,4.2-6.3,5.6-10.2c1.4-3.8,2.4-7.8,2.9-11.9c0.5-4,0.5-7.9,0-11.7c-0.5-3.9-1.5-7.4-3.1-10.6
	c-1.6-3.2-3.9-5.9-6.8-8c-2.9-2.1-6.6-3.5-11.1-4c-4.7-0.6-8.9-0.1-12.5,1.2c-3.6,1.4-6.6,3.4-9.1,6.1c-2.5,2.7-4.5,5.8-5.9,9.4
	c-1.4,3.6-2.4,7.2-2.8,11.1c-0.6,4.8-0.4,9.5,0.6,14.1c0.9,4.5,2.6,8.3,5,11.4c-1.6,0.2-3.1,0.2-4.5,0.1c-3.6-0.4-6.6-1.9-9-4.3
	c-2.3-2.5-3.9-5.6-4.9-9.3c-1-3.7-1.2-7.7-0.7-11.9c0.4-3.4,1.3-6.9,2.7-10.3c1.4-3.4,3.3-6.6,5.7-9.6c2.4-3,5.3-5.5,8.8-7.6
	c3.4-2.2,7.4-3.7,12-4.7c4.5-0.9,9.6-1.1,15.3-0.4c7.2,0.8,13.3,2.6,18.1,5.2c4.8,2.6,8.6,5.8,11.4,9.6c2.8,3.8,4.6,7.9,5.6,12.3
	c1,4.5,1.2,9,0.6,13.6c-0.6,4.9-1.9,9.5-4,14c-2,4.5-4.7,8.4-8.1,11.9c-3.3,3.4-7.2,6-11.7,7.8c-4.5,1.8-9.4,2.3-14.8,1.7
	c-4-0.5-7.8-1.3-11.3-2.4c-3.5-1.1-6.4-2.3-8.5-3.7l5.7-48.8C119.5,229.3,120.8,225.7,122.7,223.7z"/>
<path class="st11" d="M211.3,290.5c-5,3.4-10.2,5-15.6,4.8c-4-0.1-7.6-1.3-10.8-3.6c-3.3-2.3-5.8-5.4-7.6-9.4
	c-1.9-4-2.7-8.7-2.5-14.1c0.2-5.7,1.3-10.6,3.3-14.9c2-4.2,4.8-7.5,8.5-9.7c3.7-2.2,8.1-3.3,13.4-3.1c2.6,0.1,5.2,0.6,7.7,1.5
	c5.8,2.4,8.5,7.3,8.3,14.6c-0.6,11-9.2,18.5-25.5,22.5c0.9,3.4,2.2,5.9,4,7.4c1.8,1.5,3.8,2.3,6.1,2.4c3.3,0.1,6.8-1.2,10.6-3.9
	c5.2-3.9,9.6-9,13.3-15.1c0.6-1.1,1.4-1.6,2.4-1.6c0.9,0.1,1.4,0.5,1.4,1.3c0,0.2-0.1,0.5-0.2,0.8
	C222.9,279.8,217.3,286.4,211.3,290.5z M189.8,275.6c9.5-3.2,14.5-10.5,14.9-21.8c0-1.4,0-2.8-0.1-4.2c-0.2-1.4-0.6-2.6-1.3-3.5
	c-0.8-1-1.9-1.5-3.5-1.5c-1.7-0.1-3.2,0.6-4.4,1.9c-1.2,1.3-2.3,3-3.1,5.3c-0.8,2.2-1.5,4.7-1.9,7.4c-0.5,2.7-0.7,5.4-0.8,8.2
	C189.4,270.4,189.5,273.2,189.8,275.6z"/>
<path class="st11" d="M226.4,227.8c0.8-4.8,2.1-9,4-12.8c1.9-3.8,4.4-6.8,7.7-9.1c3.2-2.3,7.2-3.4,12-3.5c2.6,0,4.5,0.5,5.4,1.7
	c-3.8,0.6-6.8,2.4-8.9,5.3c-2.1,2.9-3.7,6.3-4.6,10.3c-1,4-1.5,8.1-1.7,12.2c-0.2,4.1-0.3,7.6-0.2,10.4l0.5,39.3
	c0.1,3.9,1,5.8,2.7,5.8c1.1,0,2.3-0.9,3.7-2.8c1.3-1.8,2.6-3.9,3.9-6.2c1.2-2.2,2.2-4.1,3-5.7c0.8-1.5,1.3-2.6,1.7-3.3
	c0.6-1.1,1.3-1.7,2.3-1.7c0.9,0,1.4,0.4,1.4,1.3c0,0.3-0.1,0.5-0.2,0.8c-0.5,1.1-1.1,2.3-1.6,3.5c-0.5,1-1,2-1.5,3
	c-1.1,2.4-2.3,4.8-3.6,7.1s-2.7,4.5-4.2,6.5c-1.6,2-3.3,3.6-5.3,4.8c-2,1.2-4.3,1.8-6.9,1.9c-2,0-3.6-0.4-4.9-1.3
	c-1.3-0.9-2.3-2.1-3.1-3.6c-0.8-1.7-1.4-3.7-1.7-5.9c-0.3-2.2-0.5-4.4-0.5-6.7l-0.5-36.5C225.3,237.5,225.6,232.6,226.4,227.8z"/>
<path class="st11" d="M254.1,223.9c-0.1-2.5,0.6-4.8,2.2-6.7c1.6-1.9,3.5-2.9,5.9-3c2.4-0.1,4.5,0.7,6.2,2.4
	c1.8,1.7,2.7,3.9,2.8,6.4c0.1,2.5-0.6,4.8-2.2,6.7c-1.6,1.9-3.5,2.9-5.9,3c-2.4,0.1-4.4-0.7-6.1-2.4
	C255.1,228.5,254.2,226.4,254.1,223.9z M271.9,280.6l-2-39.6c-1.4-0.5-2.9-0.8-4.8-0.7c-3.4,0.2-5.9,1.4-7.4,3.7
	c-1.5,2.3-2.2,6-1.9,11l1.2,23.6c0.1,2.3,0.4,4.5,0.8,6.6c0.4,2.2,1,4.1,2,5.8c0.8,1.5,1.9,2.7,3.2,3.5c1.3,0.9,2.9,1.3,5,1.2
	c2.6-0.1,4.8-0.8,6.7-2.1c1.9-1.3,3.7-3,5.1-5c1.5-2,2.8-4.2,4-6.7s2.3-4.8,3.3-7.3c0.5-1,0.9-2,1.3-3c0.5-1.2,1.1-2.4,1.5-3.5
	c0.1-0.2,0.2-0.5,0.2-0.8c-0.1-0.9-0.6-1.3-1.5-1.2c-1,0-1.7,0.6-2.2,1.8c-0.3,0.7-0.8,1.9-1.6,3.4c-0.7,1.6-1.6,3.6-2.8,5.8
	c-1.2,2.3-2.4,4.4-3.7,6.3c-1.3,1.9-2.4,2.9-3.5,2.9C273,286.4,272.1,284.5,271.9,280.6z"/>
<path class="st11" d="M338.7,269.4c0.5-0.3,1.1-0.5,1.7-0.5c1.1-0.1,1.7,0.5,1.8,1.6c0.1,0.9-0.5,1.6-1.7,2.2
	c-4.4,2.5-9.2,5.5-14.3,9.2c1.9,2.2,3.6,4.6,4.8,7.3c1.3,2.7,2.1,5.6,2.4,8.7c0.6,6,0.3,11.2-0.9,15.7c-1.2,4.5-3,8.3-5.4,11.4
	c-2.4,3.1-5.2,5.5-8.4,7.2c-3.2,1.7-6.4,2.7-9.8,3c-2.6,0.3-4.9-0.1-7.1-1c-2.2-0.9-4-2.2-5.4-4.1c-1.4-1.9-2.2-4.3-2.5-7.1
	c-0.4-4.2,0.3-8.5,2.1-12.7c1.8-4.3,4.4-8.5,7.7-12.6c3.3-4.1,7.1-7.9,11.3-11.6c-1.6-3.3-3.5-5.9-5.8-8.1c-2.2-2.1-4.5-3.9-6.9-5.3
	l9.3-28.7c-2.3,0.2-4.7,0.3-7.2,0.2c-2.5-0.1-4.9-0.4-7.2-1.1c-0.2,0.8-0.3,1.7-0.5,2.6c-0.8,3.3-1.5,6.9-2.1,10.8
	c-0.6,3.9-0.7,7.9-0.3,12.1c0.2,2.2,0.7,4.4,1.3,6.3c0.7,2,1.7,3.8,3.1,5.2c-1.1,0.4-2.2,0.7-3.3,0.8c-2.6,0.3-4.7-0.5-6.4-2.2
	c-1.7-1.7-2.7-4.6-3.1-8.5c-0.3-2.8-0.2-5.5,0.1-8.3c0.4-2.8,0.9-5.4,1.6-8c0.7-2.6,1.4-5,2.1-7.3c0.6-2.1,1.2-4.1,1.7-5.9
	c-2.1-0.8-3.9-1.9-5.3-3.4c-1.4-1.5-2.2-3.5-2.4-6c-0.2-1.8,0-3.3,0.6-4.5c0.6-1.2,1.4-2.2,2.4-2.8c1-0.7,2.1-1.1,3.3-1.2
	c1.3-0.1,2.5,0.1,3.8,0.6c1.3,0.5,2.4,1.4,3.3,2.5c0.9,1.2,1.5,2.7,1.6,4.5c0.1,1.1,0.1,2.2,0,3.4c-0.1,1.2-0.3,2.3-0.5,3.4
	c-0.1,0.4-0.1,0.8-0.2,1.2c1.8,0.5,3.6,0.7,5.5,0.8c1.9,0.1,3.7,0.1,5.5-0.1c2.8-0.3,5.6-0.7,8.3-1.3c2.4-0.5,4.5-0.8,6.3-1
	c1.2-0.1,2.2,0.3,3.1,1.4c0.4,0.6,0.7,1.2,0.7,1.9c0.1,0.5,0,1-0.2,1.6l-10.5,32.5c2.4,1.3,4.7,2.8,6.7,4.6
	C328.9,275.3,334,272,338.7,269.4z M289.8,231c0.1,1.2,0.4,2.3,0.8,3.2c0.4,1.1,1.1,1.9,1.9,2.4c0.3-1.6,0.5-3.3,0.3-5.1
	c-0.1-0.8-0.3-1.5-0.6-2c-0.4-0.5-0.9-0.8-1.5-0.7c-0.4,0-0.6,0.3-0.7,0.8C289.8,229.9,289.8,230.4,289.8,231z M316.6,289.8
	c-3.3,3-6.1,6.2-8.6,9.6c-2.5,3.3-4.4,6.8-5.7,10.4c-1.3,3.6-1.8,7.1-1.5,10.7c0.3,2.5,0.9,4.5,2.1,6c1.1,1.5,2.8,2.1,5.3,1.8
	c2.4-0.2,4.4-1.2,6-3c1.5-1.7,2.7-4,3.5-6.7c0.8-2.7,1.2-5.8,1.3-9.2c0.2-3.3,0.1-6.7-0.3-10.1C318.3,295.7,317.6,292.5,316.6,289.8
	z"/>
<path class="st11" d="M378.3,277.4c-4.2,4.3-9,7-14.3,7.8c-3.9,0.7-7.7,0.2-11.3-1.3c-3.6-1.6-6.8-4.1-9.3-7.7
	c-2.6-3.6-4.4-8-5.3-13.3c-0.9-5.6-0.9-10.7,0.2-15.2c1.1-4.5,3.2-8.3,6.4-11.3c3.1-2.9,7.3-4.8,12.6-5.7c2.6-0.4,5.2-0.5,7.9-0.1
	c6.1,1.2,9.8,5.5,11.1,12.7c1.6,11-5.3,20-20.5,27.1c1.5,3.2,3.4,5.3,5.4,6.4c2,1.1,4.2,1.5,6.5,1.1c3.2-0.5,6.4-2.5,9.6-5.9
	c4.3-4.9,7.6-10.7,10-17.5c0.4-1.2,1-1.9,2-2c0.9-0.1,1.5,0.2,1.6,1c0,0.2,0,0.5-0.1,0.8C387.6,264.6,383.4,272.2,378.3,277.4z
	 M354.3,267.1c8.7-5.1,12.1-13.2,10.2-24.4c-0.2-1.4-0.5-2.7-1-4.1c-0.4-1.3-1.1-2.4-2-3.2c-0.9-0.8-2.2-1.1-3.7-0.8
	c-1.7,0.3-3,1.2-4,2.7c-0.9,1.5-1.6,3.4-2,5.8c-0.4,2.3-0.5,4.9-0.4,7.6c0.1,2.7,0.4,5.5,0.8,8.2
	C352.9,262.1,353.5,264.8,354.3,267.1z"/>
</svg>
