<?xml version="1.0" encoding="utf-8"?>
<!-- Generator: Adobe Illustrator 22.0.1, SVG Export Plug-In . SVG Version: 6.00 Build 0)  -->
<svg version="1.1" id="Layer_1" xmlns="http://www.w3.org/2000/svg" xmlns:xlink="http://www.w3.org/1999/xlink" x="0px" y="0px"
	 viewBox="0 0 495 495" style="enable-background:new 0 0 495 495;" xml:space="preserve">
<style type="text/css">
	.st0{fill:#FFCC60;}
	.st1{fill:#D37D5B;}
	.st2{fill:#A5BC79;}
	.st3{fill:#899B62;}
	.st4{fill:#C14616;}
	.st5{fill:#D8D7DA;}
	.st6{fill:#FFFFFF;}
</style>
<g>
	<path class="st0" d="M431.4,339.1H264.7c-12.7,0-23-10.3-23-23s10.3-23,23-23h133.8c-2.7-6.1-4.2-12.9-4.2-20s1.5-13.9,4.2-20
		H264.7c-34.7,0-63,28.2-63,63c0,34.7,28.2,63,63,63h166.6c12.7,0,23,10.3,23,23s-10.3,23-23,23H155.2c2.7,6.1,4.2,12.9,4.2,20
		s-1.5,13.9-4.2,20h276.2c34.7,0,63-28.2,63-63S466.1,339.1,431.4,339.1z"/>
	<rect x="301.4" y="0" class="st1" width="123" height="141.3"/>
	<path class="st0" d="M464.3,227.3V0h-40v227.3c6.1-2.7,12.9-4.2,20-4.2C451.4,223.2,458.2,224.7,464.3,227.3z"/>
	<path class="st2" d="M398.5,293.2c7.7,17.6,25.4,30,45.8,30v-100c-7.1,0-13.9,1.5-20,4.2c-11.5,5-20.8,14.3-25.8,25.8
		c-2.7,6.1-4.2,12.9-4.2,20C394.3,280.3,395.8,287,398.5,293.2z"/>
	<path class="st3" d="M444.3,323.2c27.6,0,50-22.4,50-50c0-20.5-12.4-38.1-30-45.8c-6.1-2.7-12.9-4.2-20-4.2V323.2z"/>
	<path class="st2" d="M59.4,445c0,27.6,22.4,50,50,50V395C81.8,395,59.4,417.4,59.4,445z"/>
	<path class="st3" d="M155.2,425c-7.7-17.6-25.4-30-45.8-30v100c20.5,0,38.1-12.4,45.8-30c2.7-6.1,4.2-12.9,4.2-20
		S157.9,431.1,155.2,425z"/>
	<path class="st4" d="M148,194.5c0,22.1-17.9,40-40,40v132.3L192.2,261c14.9-18.8,23.1-42.5,23.1-66.5
		c0-59.2-48.1-107.3-107.3-107.3v67.3C130,154.5,148,172.4,148,194.5z"/>
	<path class="st5" d="M148,194.5c0-22.1-17.9-40-40-40v80C130,234.5,148,216.5,148,194.5z"/>
	<path class="st1" d="M108,234.5c-22.1,0-40-17.9-40-40s17.9-40,40-40V87.2C48.8,87.2,0.7,135.3,0.7,194.5c0,24,8.2,47.6,23.1,66.5
		L108,366.8V234.5z"/>
	<path class="st6" d="M68,194.5c0,22.1,17.9,40,40,40v-80C85.9,154.5,68,172.4,68,194.5z"/>
</g>
</svg>
