<?xml version="1.0" encoding="utf-8"?>
<!-- Generator: Adobe Illustrator 22.0.1, SVG Export Plug-In . SVG Version: 6.00 Build 0)  -->
<svg version="1.1" id="Layer_1" xmlns="http://www.w3.org/2000/svg" xmlns:xlink="http://www.w3.org/1999/xlink" x="0px" y="0px"
	 viewBox="0 0 512 512" style="enable-background:new 0 0 512 512;" xml:space="preserve">
<style type="text/css">
	.st0{fill:#DCDCDC;}
	.st1{fill:#BABABA;}
	.st2{fill:#8C8C8C;}
	.st3{fill:#7E7E7E;}
	.st4{fill:#545454;}
	.st5{fill:#707070;}
	.st6{fill:#979797;}
	.st7{fill:#D1D1D1;}
	.st8{opacity:0.1;enable-background:new    ;}
</style>
<path class="st0" d="M141.1,258.8c-24.2-24.1-24.2-63.3,0-87.5c5.5-5.5,14.5-5.5,20,0L229,239c5.5,5.5,5.5,14.4,0,19.9
	C204.8,282.9,165.4,283,141.1,258.8z"/>
<path class="st1" d="M172.1,187.3c-11.3,11.3-11.3,29.5,0,40.7c11.3,11.2,29.6,11.2,41,0c0.8-0.8,1.6-1.7,2.3-2.7L174.8,185
	C173.8,185.7,172.9,186.4,172.1,187.3z"/>
<path class="st2" d="M154.1,258.8c-7.6-7.7-20.2-8.7-34-4.3c4.4-13.9,3.3-26.5-4.3-34.2c-8.6-8.6-23.4-8.9-39.2-2.4
	c-14.6-10.2-34.7-8.7-47.7,4.3c-13,13.1-14.4,33.3-4.3,48c-6.5,15.9-6.2,30.8,2.4,39.4c7.6,7.7,20.2,8.7,34,4.3
	c-4.4,13.9-3.3,26.5,4.3,34.2c7.6,7.7,20.2,8.7,34,4.3c-4.4,13.9-3.3,26.5,4.3,34.2c14.2,14.2,45.5,5.8,70.1-18.9
	c24.5-24.7,32.9-56.2,18.8-70.4c-7.6-7.7-20.2-8.8-34-4.3C162.8,279.1,161.7,266.4,154.1,258.8z"/>
<path class="st3" d="M125.9,327.8c-2.1,0-4.2-0.8-5.7-2.4l-68.2-68.6c-3.1-3.2-3.1-8.3,0-11.4c3.2-3.1,8.3-3.1,11.4,0l68.2,68.6
	c3.1,3.2,3.1,8.3,0,11.4C130,327,127.9,327.8,125.9,327.8z"/>
<path class="st3" d="M188,296.7c-13.9,27.1-47.2,37.7-74.2,23.6c-6.1-3.2-8.6-10.8-5.4-17l39-75.9c3.2-6.2,10.7-8.6,16.9-5.4
	C191.3,236.1,201.9,269.6,188,296.7z"/>
<g>
	<path class="st4" d="M131.7,323.5c-1.3,0-2.5-0.3-3.7-0.9l-1.1-0.6c-4-2.1-5.5-6.9-3.4-10.9c2.1-4,6.9-5.5,10.9-3.4l1.1,0.6
		c4,2.1,5.5,6.9,3.4,10.9C137.5,322,134.6,323.5,131.7,323.5z"/>
	<path class="st4" d="M169.6,248.5c-1.2,0-2.5-0.3-3.7-0.9c-4-2-5.5-6.9-3.5-10.9l0.6-1.1c2-4,6.9-5.5,10.9-3.5
		c4,2,5.5,6.9,3.5,10.9l-0.6,1.1C175.4,246.9,172.5,248.5,169.6,248.5z"/>
	<path class="st4" d="M151.6,304.2c-1.3,0-2.5-0.3-3.7-0.9l-1.1-0.6c-4-2.1-5.5-6.9-3.4-10.9c2.1-4,6.9-5.5,10.9-3.4l1.1,0.6
		c4,2.1,5.5,6.9,3.4,10.9C157.3,302.6,154.5,304.2,151.6,304.2z"/>
	<path class="st4" d="M166.4,278c-1.3,0-2.5-0.3-3.7-0.9l-1.1-0.6c-4-2.1-5.5-6.9-3.4-10.9s6.9-5.5,10.9-3.4l1.1,0.6
		c4,2.1,5.5,6.9,3.4,10.9C172.2,276.4,169.4,278,166.4,278z"/>
</g>
<ellipse class="st5" cx="374.5" cy="239.6" rx="37.6" ry="37.4"/>
<path class="st2" d="M453.5,373.9c7.9-7.9,9-20.8,4.4-35.1c14.3,4.6,27.4,3.4,35.3-4.4c8.9-8.8,9.2-24.2,2.5-40.5
	c10.5-15,9-35.8-4.4-49.2c-13.5-13.4-34.4-14.9-49.5-4.4c-16.4-6.7-31.8-6.4-40.7,2.4c-7.9,7.9-9,20.8-4.4,35.1
	c-14.3-4.6-27.4-3.4-35.3,4.4c-7.9,7.9-9,20.8-4.4,35.1c-14.3-4.6-27.4-3.4-35.3,4.4c-14.7,14.6-6,47,19.5,72.3
	c25.5,25.3,58,34,72.7,19.4c7.9-7.9,9-20.8,4.4-35.1C432.6,382.9,445.6,381.8,453.5,373.9z"/>
<path class="st3" d="M390.6,353.3c-2.2,0-4.4-0.8-6-2.5c-3.3-3.3-3.3-8.7,0-12.1l70.8-70.5c3.3-3.3,8.7-3.3,12.1,0
	c3.3,3.3,3.3,8.7,0,12.1l-70.8,70.4C395,352.5,392.8,353.3,390.6,353.3z"/>
<ellipse class="st1" cx="110.3" cy="330.9" rx="37.6" ry="37.4"/>
<path class="st6" d="M355.2,227c-8.1-8-21.4-9.2-36-4.5c4.7-14.5,3.5-27.8-4.5-35.8c-9.1-9-24.8-9.3-41.5-2.5
	c-15.4-10.6-36.7-9.1-50.4,4.5c-13.7,13.7-15.2,34.9-4.5,50.2c-6.9,16.6-6.5,32.3,2.5,41.3c8.1,8,21.4,9.2,36,4.5
	c-4.7,14.5-3.5,27.8,4.5,35.8c8.1,8,21.4,9.2,36,4.5c-4.7,14.5-3.5,27.8,4.5,35.8c15,14.9,48.2,6.1,74.1-19.7
	c25.9-25.8,34.8-58.8,19.8-73.7c-8.1-8-21.4-9.2-36-4.5C364.4,248.2,363.2,235,355.2,227z"/>
<path class="st3" d="M228.3,120.8c-21.6,21.5-56.7,21.5-78.3,0c-4.9-4.9-4.9-12.8,0-17.7L210.5,43c4.9-4.9,12.9-4.9,17.8,0
	C249.9,64.5,249.9,99.4,228.3,120.8z"/>
<ellipse class="st1" cx="317.9" cy="121.7" rx="26.5" ry="26.4"/>
<path class="st3" d="M377.9,18.6c3.7,3.7,3.7,9.6,0,13.2l-16,15.9c-3.7,3.7-9.6,3.7-13.3,0l-16-15.9c-3.7-3.7-3.7-9.6,0-13.2
	l16-15.9c3.7-3.7,9.6-3.7,13.3,0L377.9,18.6z"/>
<path class="st0" d="M100.4,138.6c3,3,3,7.7,0,10.7l-12.9,12.8c-3,3-7.8,3-10.8,0l-12.9-12.8c-3-3-3-7.7,0-10.7l12.9-12.8
	c3-3,7.8-3,10.8,0L100.4,138.6z"/>
<path class="st3" d="M436.5,162.8c3,3,3,7.7,0,10.7l-12.9,12.8c-3,3-7.8,3-10.8,0l-12.9-12.8c-3-3-3-7.7,0-10.7l12.9-12.8
	c3-3,7.8-3,10.8,0L436.5,162.8z"/>
<path class="st3" d="M325.3,298.9c-2.1,0-4.1-0.8-5.7-2.4l-72.2-71.8c-3.2-3.1-3.2-8.3,0-11.4c3.1-3.2,8.3-3.2,11.4,0L331,285
	c3.2,3.1,3.2,8.3,0,11.4C329.5,298.1,327.4,298.9,325.3,298.9z"/>
<path class="st0" d="M79.9,330.8c4.6,4.6,4.6,12,0,16.6l-20,19.9c-4.6,4.6-12.1,4.6-16.7,0l-20-19.9c-4.6-4.6-4.6-12,0-16.6l20-19.9
	c4.6-4.6,12.1-4.6,16.7,0L79.9,330.8z"/>
<path class="st5" d="M215.8,342c-21.6,21.5-56.7,21.5-78.3,0c-4.9-4.9-4.9-12.8,0-17.7l60.5-60.2c4.9-4.9,12.9-4.9,17.8,0
	C237.3,285.6,237.3,320.5,215.8,342z"/>
<g>
	<ellipse class="st1" cx="316.1" cy="300.5" rx="32.3" ry="32.1"/>
	<ellipse class="st1" cx="453.2" cy="342.5" rx="26.5" ry="26.4"/>
</g>
<path class="st5" d="M386.5,323.1c5.5,5.5,5.5,14.4,0,19.9l-24,23.9c-5.5,5.5-14.5,5.5-20,0l-24-23.9c-5.5-5.5-5.5-14.4,0-19.9
	l24-23.9c5.5-5.5,14.5-5.5,20,0L386.5,323.1z"/>
<g>
	<path class="st4" d="M168.7,129.8c-2.1,0-4.1-0.8-5.7-2.3l-0.9-0.9c-3.2-3.1-3.2-8.3,0-11.4c3.1-3.2,8.3-3.2,11.4,0l0.9,0.9
		c3.2,3.1,3.2,8.3,0,11.4C172.9,129,170.8,129.8,168.7,129.8z"/>
	<path class="st4" d="M227.9,70.1c-2.1,0-4.1-0.8-5.7-2.4c-3.1-3.2-3.1-8.3,0-11.4l0.9-0.9c3.2-3.2,8.3-3.1,11.4,0
		c3.1,3.2,3.1,8.3,0,11.4l-0.9,0.9C232,69.3,229.9,70.1,227.9,70.1z"/>
	<path class="st4" d="M193.6,117.4c-2.1,0-4.1-0.8-5.7-2.4l-0.9-0.9c-3.2-3.1-3.2-8.3,0-11.4c3.1-3.2,8.3-3.2,11.4,0l0.9,0.9
		c3.2,3.1,3.2,8.3,0,11.4C197.8,116.6,195.7,117.4,193.6,117.4z"/>
	<path class="st4" d="M215.8,97c-2.1,0-4.1-0.8-5.7-2.4l-0.9-0.9c-3.2-3.2-3.2-8.3,0-11.4c3.1-3.2,8.3-3.2,11.4,0l0.9,0.9
		c3.2,3.2,3.2,8.3,0,11.4C220,96.2,217.9,97,215.8,97z"/>
</g>
<g>
	<path class="st4" d="M156.1,350.9c-2.1,0-4.1-0.8-5.7-2.4l-0.9-0.9c-3.2-3.1-3.2-8.3,0-11.4c3.1-3.2,8.3-3.2,11.4,0l0.9,0.9
		c3.2,3.1,3.2,8.3,0,11.4C160.3,350.1,158.2,350.9,156.1,350.9z"/>
	<path class="st4" d="M215.3,291.2c-2.1,0-4.1-0.8-5.7-2.4c-3.1-3.2-3.1-8.3,0-11.4l0.9-0.9c3.2-3.2,8.3-3.1,11.4,0
		c3.1,3.2,3.1,8.3,0,11.4l-0.9,0.9C219.4,290.4,217.3,291.2,215.3,291.2z"/>
	<path class="st4" d="M181,338.5c-2.1,0-4.1-0.8-5.7-2.4l-0.9-0.9c-3.2-3.1-3.2-8.3,0-11.4c3.1-3.2,8.3-3.2,11.4,0l0.9,0.9
		c3.2,3.1,3.2,8.3,0,11.4C185.2,337.7,183.1,338.5,181,338.5z"/>
	<path class="st4" d="M203.3,318.1c-2.1,0-4.1-0.8-5.7-2.4l-0.9-0.9c-3.2-3.1-3.2-8.3,0-11.4c3.1-3.2,8.3-3.2,11.4,0l0.9,0.9
		c3.2,3.1,3.2,8.3,0,11.4C207.4,317.4,205.4,318.1,203.3,318.1z"/>
</g>
<path class="st0" d="M236.9,356.7c-24.2-24.1-24.2-63.3,0-87.5c5.5-5.5,14.5-5.5,20,0l67.9,67.6c5.5,5.5,5.5,14.4,0,19.9
	C300.6,380.8,261.1,380.8,236.9,356.7z"/>
<path class="st1" d="M267.9,285.2c-11.3,11.3-11.3,29.5,0,40.7c11.3,11.2,29.6,11.2,41,0c0.8-0.8,1.6-1.7,2.3-2.7l-40.6-40.4
	C269.6,283.6,268.7,284.3,267.9,285.2z"/>
<path class="st7" d="M152.5,482.2c-34.7,0-68.3-12.4-94.5-34.9c-26.1-22.4-43.3-53.3-48.4-87c-0.6-3.6,0.5-7.3,2.9-10
	c2.4-2.8,5.9-4.4,9.5-4.4h462.3c3.7,0,7.1,1.6,9.5,4.4c2.4,2.8,3.4,6.4,2.9,10c-5.2,33.8-22.4,64.7-48.4,87
	c-26.2,22.5-59.8,34.9-94.5,34.9H152.5z"/>
<g>
	<path class="st3" d="M132.5,372.8H12c1.4,5.5,3,10.9,5,16.1h115.4c4.5,0,8.1-3.6,8.1-8.1C140.5,376.4,136.9,372.8,132.5,372.8z"/>
	<path class="st3" d="M104.8,410.3H27.2c3.3,5.6,6.9,11,10.9,16.1h66.7c4.5,0,8.1-3.6,8.1-8.1C112.9,413.9,109.3,410.3,104.8,410.3z
		"/>
</g>
<path class="st8" d="M54.7,360.2c-0.6-3.6,0.5-7.3,2.9-10c2.4-2.8,5.9-4.4,9.5-4.4H22c-3.7,0-7.1,1.6-9.5,4.4
	c-2.4,2.8-3.4,6.4-2.9,10c5.2,33.8,22.4,64.7,48.4,87.1c26.2,22.5,59.8,34.9,94.5,34.9h45.1c-34.7,0-68.3-12.4-94.5-34.9
	C77,424.9,59.8,393.9,54.7,360.2z"/>
<path class="st0" d="M390.3,501.3c0,5.9-4.8,10.7-10.7,10.7h-253c-5.9,0-10.7-4.8-10.7-10.7v-9.6c0-5.9,4.8-10.7,10.7-10.7h253
	c5.9,0,10.7,4.8,10.7,10.7L390.3,501.3L390.3,501.3z"/>
<path class="st8" d="M160.9,501.3v-9.6c0-5.9,4.8-10.7,10.7-10.7h-45c-5.9,0-10.7,4.8-10.7,10.7v9.6c0,5.9,4.8,10.7,10.7,10.7h45
	C165.7,512,160.9,507.2,160.9,501.3z"/>
</svg>
